<?xml version="1.0" encoding="utf-8"?>
<svg version="1.1" id="svg2" width="933.33331" height="240" viewBox="38.189 25.968 840.917 184.245" xmlns="http://www.w3.org/2000/svg">
  <defs id="defs6">
    <clipPath clipPathUnits="userSpaceOnUse" id="clipPath22">
      <path d="M 0,180 H 700 V 0 H 0 Z" id="path20"/>
    </clipPath>
  </defs>
  <g id="g10" transform="matrix(1.3333333,0,0,-1.3333333,0,240)">
    <g aria-label="Unimarconi" transform="matrix(1,0,0,-1,197.2197,45.9082)" id="text14" style="font-variant:normal;font-weight:bold;font-stretch:semi-condensed;font-size:115.898px;font-family:'PT Sans Narrow';-inkscape-font-specification:PTSans-NarrowBold;writing-mode:lr-tb;fill:#379975;fill-opacity:1;fill-rule:nonzero;stroke:none">
      <path d="m 41.027893,-81.128602 h 13.791862 v 52.617693 q 0,15.762129 -6.490288,22.8319069 -6.37439,7.0697781 -17.732394,7.0697781 -13.328271,0 -19.586763,-6.8379821 Q 4.8677161,-12.401086 4.8677161,-26.540643 V -81.128602 H 19.470864 v 52.038203 q 0,9.503637 2.549756,13.328271 2.549757,3.708736 8.460555,3.708736 5.679002,0 8.11286,-3.940532 2.433858,-4.05643 2.433858,-13.096475 z" id="path184"/>
      <path d="m 93.413636,0 v -35.232993 q 0,-6.37439 -1.506674,-8.924146 -1.506674,-2.549756 -5.099512,-2.549756 -3.013349,0 -5.215411,1.854368 -2.202062,1.854368 -3.129246,4.63592 V 0 H 64.670931 v -57.949001 h 11.01031 l 1.622572,6.722084 h 0.347694 q 2.086164,-3.361042 5.679002,-5.679002 3.592839,-2.433858 9.387739,-2.433858 3.47694,0 6.142594,1.043082 2.781548,1.043082 4.635918,3.47694 1.85437,2.31796 2.78155,6.37439 0.92719,3.940532 0.92719,9.85133 V 0 Z" id="path186"/>
      <path d="m 117.86797,-57.949001 h 13.79187 V 0 H 117.86797 Z M 116.2454,-74.29062 q 0,-3.47694 2.20206,-5.679002 2.20207,-2.31796 6.2585,-2.31796 4.05643,0 6.49028,2.202062 2.43386,2.202062 2.43386,5.7949 0,3.592838 -2.43386,5.679002 -2.43385,2.086164 -6.49028,2.086164 -4.05643,0 -6.2585,-2.086164 -2.20206,-2.202062 -2.20206,-5.679002 z" id="path188"/>
      <path d="m 169.55842,0 v -33.726319 q 0,-7.301574 -1.15898,-10.083126 -1.15898,-2.89745 -4.52002,-2.89745 -2.78155,0 -4.63592,1.854368 -1.73847,1.73847 -2.66566,4.288226 V 0 h -13.79186 v -57.949001 h 10.66262 l 1.73847,6.95388 h 0.34769 q 2.20206,-3.592838 5.44721,-5.910798 3.36104,-2.433858 8.80825,-2.433858 4.52002,0 7.30157,1.970266 2.89745,1.970266 4.52002,6.95388 2.20207,-4.172328 5.7949,-6.490288 3.59284,-2.433858 8.46056,-2.433858 3.82463,0 6.49029,1.043082 2.78155,0.927184 4.40412,3.361042 1.73847,2.433858 2.54976,6.722084 0.81128,4.172328 0.81128,10.662616 V 0 h -13.79186 v -35.232993 q 0,-5.910798 -1.04308,-8.69235 -1.04308,-2.781552 -4.63592,-2.781552 -2.89745,0 -4.75182,1.73847 -1.73847,1.622572 -2.54976,4.520022 V 0 Z" id="path190"/>
      <path d="m 219.74206,-54.472061 q 3.47694,-2.086164 8.69235,-3.361042 5.21541,-1.274878 11.8216,-1.274878 9.85133,0 13.67596,5.099512 3.94053,5.099512 3.94053,14.48725 0,5.447206 -0.34769,10.778514 -0.2318,5.21541 -0.3477,10.314923 -0.11589,4.983614 0.1159,9.7354318 0.3477,4.6359201 1.62257,8.8082482 h -11.2421 l -2.20206,-7.0697782 h -0.4636 q -1.85436,3.3610421 -5.21541,5.5631042 -3.36104,2.20206202 -8.46055,2.20206202 -6.83798,0 -10.77851,-4.52002212 -3.94054,-4.6359201 -3.94054,-12.2851879 0,-10.430821 7.41748,-14.834945 7.41747,-4.404124 20.05035,-3.708736 0.57949,-6.722084 -0.92718,-9.735432 -1.39078,-3.013348 -6.1426,-3.013348 -3.47694,0 -7.18567,0.811286 -3.70874,0.811286 -6.60619,2.31796 z m 16.57341,43.461751 q 3.12925,0 5.09952,-1.506674 1.97026,-1.622572 2.89745,-3.47694 v -9.619535 q -2.66566,-0.347694 -5.09952,-0.115898 -2.43385,0.231796 -4.28822,1.043082 -1.85437,0.811286 -3.01335,2.433858 -1.04308,1.506675 -1.04308,3.940533 0,3.592838 1.39077,5.447206 1.50668,1.854368 4.05643,1.854368 z" id="path192"/>
      <path d="m 294.84384,-44.273037 q -2.78155,-1.043082 -5.09951,-1.043082 -3.12924,0 -5.4472,1.73847 -2.20207,1.73847 -3.01335,4.867716 V 0 h -13.79187 v -57.949001 h 10.54672 l 1.62258,6.95388 h 0.46359 q 1.50667,-3.824634 4.28822,-5.910798 2.89745,-2.202062 6.60619,-2.202062 2.78155,0 5.44721,1.15898 z" id="path194"/>
      <path d="m 335.63983,-3.1292461 q -2.89745,2.31796008 -6.95388,3.47694011 -4.05643,1.15897999 -8.11286,1.15897999 -5.91079,0 -9.96723,-2.08616401 -3.94053,-2.20206209 -6.49028,-6.14259419 -2.54976,-4.0564298 -3.70874,-9.6195338 -1.04308,-5.679002 -1.04308,-12.632883 0,-15.182638 5.4472,-22.831906 5.44721,-7.649268 15.99393,-7.649268 5.21541,0 8.46055,0.927184 3.36105,0.927184 5.9108,2.31796 l -3.24514,11.473902 q -2.08617,-1.043082 -4.05643,-1.506674 -1.85437,-0.57949 -4.52002,-0.57949 -4.86772,0 -7.30158,4.288226 -2.43386,4.172328 -2.43386,13.560066 0,7.881065 2.43386,12.864679 2.54976,4.983614 7.99696,4.983614 2.89745,0 4.86772,-0.695388 2.08616,-0.811286 3.82463,-1.970266 z" id="path196"/>
      <path d="m 338.42128,-28.974501 q 0,-15.414434 6.0267,-22.947804 6.0267,-7.53337 16.80521,-7.53337 11.5898,0 17.2688,7.649268 5.67901,7.649268 5.67901,22.831906 0,15.530333 -6.0267,23.0637029 -6.0267,7.4174721 -16.92111,7.4174721 -22.83191,0 -22.83191,-30.481175 z m 14.25546,0 q 0,8.692351 1.97026,13.444169 1.97027,4.751818 6.60619,4.751818 4.40412,0 6.49029,-4.05643 2.20206,-4.172328 2.20206,-14.139557 0,-8.924146 -1.97027,-13.560066 -1.97026,-4.63592 -6.72208,-4.63592 -4.05643,0 -6.37439,4.172328 -2.20206,4.05643 -2.20206,14.023658 z" id="path198"/>
      <path d="m 420.82465,0 v -35.232993 q 0,-6.37439 -1.50668,-8.924146 -1.50667,-2.549756 -5.09951,-2.549756 -3.01335,0 -5.21541,1.854368 -2.20206,1.854368 -3.12925,4.63592 V 0 h -13.79186 v -57.949001 h 11.01031 l 1.62257,6.722084 h 0.3477 q 2.08616,-3.361042 5.679,-5.679002 3.59284,-2.433858 9.38774,-2.433858 3.47694,0 6.14259,1.043082 2.78155,1.043082 4.63592,3.47694 1.85437,2.31796 2.78155,6.37439 0.92719,3.940532 0.92719,9.85133 V 0 Z" id="path200"/>
      <path d="m 445.27898,-57.949001 h 13.79186 V 0 h -13.79186 z m -1.62257,-16.341619 q 0,-3.47694 2.20206,-5.679002 2.20206,-2.31796 6.25849,-2.31796 4.05643,0 6.49029,2.202062 2.43386,2.202062 2.43386,5.7949 0,3.592838 -2.43386,5.679002 -2.43386,2.086164 -6.49029,2.086164 -4.05643,0 -6.25849,-2.086164 -2.20206,-2.202062 -2.20206,-5.679002 z" id="path202"/>
    </g>
    <g id="g16">
      <g id="g18" clip-path="url(#clipPath22)">
        <g id="g24" transform="translate(76.4004,132.0044)">
          <path d="M 0,0 C -1.978,-1.568 -3.709,-3.375 -5.322,-5.273 -3.8,-3.563 -2.05,-1.806 0,0" style="fill:#379975;fill-opacity:1;fill-rule:nonzero;stroke:none" id="path26"/>
        </g>
        <g id="g28" transform="translate(80.7554,67.3467)">
          <path d="M 0,0 C 2.828,-1.68 5.857,-2.993 9.02,-3.924 8.119,-3.402 7.275,-2.831 6.563,-2.21 4.18,-1.668 2.008,-0.896 0,0" style="fill:#379975;fill-opacity:1;fill-rule:nonzero;stroke:none" id="path30"/>
        </g>
        <g id="g32" transform="translate(140.1938,98.8218)">
          <path d="m 0,0 c -0.7,1.577 -1.729,3.017 -3.148,4.204 1.428,3.149 2,6.205 1.663,8.939 C -0.24,8.76 0.26,4.327 0,0 m -2.661,-12.001 c -1.631,-2.335 -3.367,-4.396 -5.782,-6.61 0.286,4.3 -3.975,7.078 -9.992,6.575 6.473,4.085 11.255,9.025 14.09,13.919 2.512,-1.705 3.846,-4.093 3.728,-6.752 -0.457,-2.445 -1.137,-4.832 -2.044,-7.132 M -9.28,-23.118 c 0.739,1.24 0.675,2.004 0.92,3.087 2.099,1.988 3.042,3.294 4.624,5.529 -1.505,-3.185 -3.23,-5.916 -5.544,-8.616 m -17.205,-11.775 c -1.503,-0.513 -3.015,-0.912 -4.532,-1.243 -7.531,-0.632 -13.041,0.058 -16.84,1.644 7.714,-0.69 16.999,0.773 27.732,6.03 3.894,1.904 7.595,4.543 10.808,7.579 -1.88,-4.402 -2.63,-5.395 -5.894,-7.891 -3.319,-2.57 -7.082,-4.672 -11.274,-6.119 m -32.953,3.418 c 2.007,-0.897 4.18,-1.668 6.563,-2.21 0.711,-0.621 1.556,-1.192 2.456,-1.714 -3.162,0.931 -6.191,2.244 -9.019,3.924 m -10.423,15.194 c 3.496,-2.194 7.879,-3.84 12.955,-4.63 -0.828,-4.078 -0.128,-7.916 2.329,-11.005 -4.75,1.244 -8.619,3.404 -11.858,5.83 -2.326,2.539 -3.468,5.94 -3.426,9.805 m -6.672,5.803 c -0.111,0.315 -0.176,0.638 -0.272,0.951 1.161,-1.925 2.812,-3.732 4.873,-5.323 -0.087,-2.012 0.109,-3.909 0.562,-5.636 -2.135,3.006 -3.899,6.344 -5.163,10.008 m -1.333,12.767 c 0.552,1.948 1.283,3.976 2.303,6.065 1.391,-3.453 4.456,-6.144 8.621,-7.944 -2.568,-4.343 -4.171,-8.781 -4.744,-12.884 -5.212,3.857 -7.554,9.213 -6.18,14.763 m 2.385,15.468 c -0.877,-2.541 -1.1,-4.892 -0.75,-7.013 -1.014,-2.052 -1.748,-4.041 -2.303,-5.958 0.275,4.499 1.315,8.887 3.053,12.971 m 14.603,17.532 c 2.673,1.745 5.598,3.209 8.754,4.293 0.214,0.076 0.436,0.119 0.649,0.192 7.534,1.086 12.75,0.469 15.933,-1.087 -7.566,-1.103 -14.702,-3.985 -18.935,-6.183 -9.015,-4.679 -15.587,-11.438 -19.759,-18.18 0.109,5.625 4.04,12.759 13.358,20.965 m 36.563,3.428 c -2.639,0.455 -5.382,0.515 -8.106,0.314 -1.877,1.534 -5.092,2.499 -10.002,2.543 6.269,0.495 12.464,-0.522 18.108,-2.857 m 10.513,-13.046 c -6.122,1.057 -14.571,0.374 -24.106,-2.997 5.482,4.267 9.094,10.386 6.996,14.501 4.852,0.212 9.716,-0.592 13.991,-3.213 2.514,-2.05 3.476,-5.003 3.119,-8.291 m 8.994,-4.418 c -1.366,1.861 -3.976,3.309 -7.505,4.128 0.28,3.122 -0.502,5.856 -2.542,7.749 4.029,-3.2 7.485,-7.185 10.047,-11.877 m -48.053,-39.507 c 3.013,6.231 9.609,12.748 18.086,17.147 12.802,6.65 23.266,6.721 29.106,3.734 C -9.185,-3.18 -15.7,-9.204 -26.488,-13.37 c -9.861,-3.797 -18.794,-5.191 -26.373,-4.884 m 21.443,-12.542 c -5.251,3.157 -4.082,8.597 5.322,13.348 7.378,3.736 15.012,2.624 16.524,-2.192 -3.068,-2.667 -6.735,-5.123 -11.131,-7.143 -3.827,-1.745 -7.374,-3.043 -10.715,-4.013 m -22.624,9.541 c 6.142,-0.545 13.129,0.117 20.63,2.432 -4.705,-4.508 -5.65,-9.856 -1.373,-12.867 -6.27,-1.453 -11.67,-1.623 -16.321,-0.912 -3.497,2.799 -4.264,6.891 -2.936,11.347 m -10.277,20.696 c 6.505,-2.027 14.998,-2.143 23.911,0.1 -7.91,-4.995 -13.4,-11.412 -15.671,-17.577 -5.423,0.588 -10.003,2.111 -13.594,4.229 0.548,4.207 2.355,8.794 5.354,13.248 m 15.752,18.47 c -7.288,-3.99 -12.95,-9.378 -16.863,-15.132 -4.445,1.793 -7.525,4.711 -8.485,8.604 2.46,4.157 5.864,8.342 10.174,12.077 1.229,-4.353 6.881,-6.877 15.174,-5.549 m 2.789,-2.376 c 12.29,6.374 23.437,8.245 31.377,7.415 -1.985,-6.452 -8.434,-13.557 -17.96,-17.561 -11.318,-4.746 -22.342,-5.652 -30.235,-3.56 4.002,5.142 9.635,9.977 16.818,13.706 m -1.335,5.704 c -8.308,-1.775 -13.334,0.252 -14.286,4.129 2.333,1.792 4.87,3.47 7.684,4.93 4.684,2.428 12.467,5.835 20.536,6.702 4.474,-4.712 -1.266,-13.062 -13.934,-15.761 m 43.798,-3.221 c 1.508,-2.704 1.482,-7.587 -1.018,-12.919 -4.382,2.896 -11.338,3.864 -20.313,1.424 6.178,4.552 10.455,10.712 11.884,16.223 4.578,-0.743 7.902,-2.442 9.447,-4.728 m 2.781,-2.324 c -2.97,8.619 -8.544,15.577 -15.518,20.372 l -0.041,0.076 c -0.118,0.079 -0.241,0.129 -0.362,0.197 -10.304,6.912 -23.569,9.126 -36.193,4.78 -18.672,-6.43 -29.71,-25.004 -27.339,-43.85 0.002,-0.015 -0.005,-0.038 -0.005,-0.058 l 0.013,-0.019 c 0.352,-2.739 0.973,-5.484 1.907,-8.192 1.937,-5.622 4.988,-10.536 8.8,-14.612 0.459,-0.566 0.96,-1.115 1.524,-1.59 l 0.058,-0.004 c 6.488,-6.222 14.86,-10.138 23.796,-11.156 0.095,-0.024 0.177,-0.058 0.269,-0.082 l 0.164,0.028 c 5.737,-0.589 11.688,-0.016 17.503,1.988 13.564,4.673 23.086,15.761 26.377,28.693 0.017,0.043 0.035,0.08 0.05,0.122 -0.01,-0.03 -0.025,-0.057 -0.04,-0.079 0.354,1.404 0.63,2.838 0.833,4.286 l 0.053,0.105 C 1.312,-3.255 1.293,-3.215 1.29,-3.174 2.137,2.983 1.626,9.423 -0.534,15.694" style="fill:#379975;fill-opacity:1;fill-rule:nonzero;stroke:none" id="path34"/>
        </g>
        <g id="g36" transform="translate(150.3022,140.3853)">
          <path d="M 0,0 C -0.083,2.083 -1.998,3.544 -2.333,3.459 -2.913,3.313 -2.044,0.835 -1.545,0.248 -1.042,-0.335 0.082,-2.085 0,0 m 17.667,-35.639 c 0.612,0 0.777,-0.051 -0.167,-1.054 -0.946,-0.999 -0.78,-1.782 -1.781,-3.001 -0.999,-1.226 -1.161,-1.115 -0.718,0.834 0.441,1.945 0.384,1.724 -0.224,2.833 -0.61,1.116 0.111,1.944 0.277,2.778 0.165,0.833 0.725,1.613 0.725,1.613 0,0 -1.059,-0.28 -1.783,1.331 -0.719,1.62 1.005,5.173 1.668,6.34 0.669,1.168 0,2.169 -0.055,1.67 -0.055,-0.502 -0.945,-2.949 -1.884,-1.89 -0.951,1.059 -1.343,5.06 -0.506,7.5 0.829,2.453 -0.113,2.392 -0.223,1.672 -0.112,-0.723 -0.386,-1.448 -0.836,-1.39 -0.443,0.057 -0.946,2.392 -0.999,2.779 -0.057,0.389 0.667,3.337 -0.722,2.059 -1.389,-1.28 -0.167,-3.616 0.445,-4.668 0.609,-1.058 0.555,-3.672 0.058,-3.781 -0.503,-0.111 -2.001,1.054 0,-1.341 0.931,-1.108 1.555,-3.721 1.333,-4.555 -0.225,-0.833 -1.171,-1.333 -1.171,-2.001 0,-0.665 2.621,-1.11 2.338,-3.725 -0.279,-2.615 -0.942,-0.78 -1.665,-0.221 -2.171,1.67 -2.004,3.391 -1.784,4.003 0.224,0.615 -1.389,1.835 -1.114,3.224 0.285,1.389 1.443,2.669 0.503,3.059 -0.945,0.387 -1.775,1.446 -1.942,3.167 -0.168,1.719 -2.812,3.057 -0.478,5.227 1.295,1.203 0.463,2.376 1.081,3.167 0.633,0.795 1.339,1.169 2.59,1.13 1.252,-0.043 1.334,-3.128 1.627,-3.463 0.29,-0.331 1.498,0.247 1.751,0.08 0.834,-0.539 1.445,-4.32 2.585,-6.5 1.143,-2.186 0.684,-3.979 0.684,-5.312 0,-1.335 -0.612,-3 -1.278,-3.554 -0.673,-0.557 -0.283,-2.78 -0.283,-2.452 0,0.337 1.948,1.727 2.894,0.503 0.943,-1.221 -1.496,-3.948 -2.331,-4.558 -0.84,-0.611 0.773,-1.503 1.385,-1.503 m -2.738,-12.608 c 1.083,0.25 2.921,-0.627 3.212,-1.002 0.285,-0.374 -0.507,-3.08 -0.627,-3.876 -0.127,-0.797 0.537,-1.583 0.498,-1.918 -0.037,-0.334 -1.665,-2.465 -1.788,-3.047 -0.128,-0.581 0.746,-1.005 0.874,-1.418 0.125,-0.418 -1.127,-0.835 -1.836,-0.835 -0.704,0 -0.417,0.835 -0.417,1.002 0,0.163 -0.417,1.497 -0.374,2.167 0.043,0.672 1.167,1.258 1.167,1.591 0,0.33 -1.046,-0.043 -1.461,0.206 -0.416,0.252 -0.249,2.169 0.381,2.922 0.618,0.751 1.454,1.879 1.205,2.211 -0.251,0.325 -3.391,-3.033 -3.713,-2.923 -0.249,0.086 -0.292,0.916 -0.165,1.501 0.122,0.582 1.961,3.166 3.044,3.419 M 9.844,-69.884 C 8.676,-70.879 9.3,-72.098 9.09,-72.843 c -0.211,-0.76 -0.587,-1.429 -0.666,-1.925 -0.21,-1.208 -3.796,-2.086 -4.713,-2.79 -0.917,-0.708 -1.292,-2.467 -1.961,-2.756 -0.667,-0.289 -1.915,-0.542 -2.04,-0.413 -0.131,0.124 1.373,2.914 2.463,3.67 1.079,0.749 1.578,1.373 2.164,1.664 0.583,0.293 3.042,1.833 2.504,1.883 -0.545,0.031 -1.421,0.322 -1.379,0.83 0.045,0.503 2.795,3.126 2.795,3.663 0,0.546 -0.57,1.553 -0.043,2.338 0.876,1.292 3.671,1.292 3.587,1.544 -0.084,0.248 -2.129,-0.041 -2.331,0.377 -0.211,0.416 1.744,3.788 1.454,4.672 -0.291,0.872 -0.04,0.908 -0.5,0.413 -0.457,-0.501 -0.915,-0.331 -1.374,-0.46 -0.459,-0.124 -0.294,-1.792 -0.459,-2.83 -0.167,-1.052 -0.999,-4.088 -1.583,-4.217 -0.584,-0.124 -0.712,2.253 -1.048,1.962 -0.33,-0.289 0.673,-2.838 0.547,-3.628 -0.129,-0.792 -0.877,-2.879 -1.794,-3.631 -0.922,-0.752 -1.334,-1.709 -2.006,-0.537 -0.665,1.167 -0.534,0.955 -0.534,-0.039 0,-1.002 0.085,-3.212 -0.547,-3.965 -0.622,-0.747 -2.293,-1.54 -2.584,-1.298 -0.293,0.253 0.793,3.593 1.04,4.044 0.253,0.468 1.418,1.299 1.254,2.131 -0.165,0.833 -0.374,2.214 0.207,1.837 0.584,-0.376 1.333,-1.469 1.333,-0.293 0,1.165 -0.788,3.46 -0.788,4.625 0,1.171 0.457,1.126 1.208,1.55 0.75,0.407 1.581,1.208 1.002,2.084 -0.587,0.869 -1.674,2.288 -0.673,2.584 1.003,0.293 2.335,0.626 3.216,-0.788 0.183,-0.311 0.877,0.116 1.373,0.994 0.508,0.877 1.004,1.169 1.96,1.629 0.962,0.456 1.169,1.163 1.918,1.081 0.929,-0.109 1.419,-3.212 1.127,-4.132 -0.292,-0.913 0.825,-1.547 1.042,-2.704 0.331,-1.75 -2.749,-4.797 -4.417,-6.21 m 10.509,-2.369 c 0.669,-0.393 0.761,-3.651 1.698,-5.587 1.445,-2.986 1.532,-3.746 0.174,-5.485 -1.599,-2.036 -23.915,-22.098 -26.491,-22.706 -2.566,-0.599 -27.605,-0.325 -31.051,1.005 -3.445,1.331 -4.448,1 -3.889,3.004 0.558,1.995 -0.665,6.669 -1.555,7.674 -0.892,0.998 -1.56,1.223 0.335,1.108 1.881,-0.11 3.936,-0.158 12.829,-1.417 9.272,-1.677 21.765,0 23.758,1.326 3.746,2.479 14.236,12.562 19.499,19.141 1.984,2.48 4.317,2.16 4.693,1.937 m -49.888,-39.784 c 1.001,0 2.998,-1.223 2.998,-2.223 0,-0.999 -2.108,-1.772 -4.109,-1.218 -2.001,0.555 -1.174,3.441 1.111,3.441 m -4.779,0 c -0.341,1.004 -4.231,5.124 -5.893,6.342 v 0.222 c 5.002,-0.444 11.34,-5.784 8.896,-5.34 -2.445,0.449 -2.67,-2.217 -3.003,-1.224 m -6.84,11.376 c -2.082,-1.919 -2.338,-0.501 -3.67,-1.841 -1.33,-1.332 -1.95,-1.73 -3.033,-1.481 -1.085,0.245 1.38,3.017 1.046,5.189 -0.333,2.169 -5.772,6.911 -2.022,6.911 2.278,0 9.768,-6.862 7.679,-8.778 m 9.509,9.001 c 0,-0.58 -1.25,-0.661 -2.001,0 -0.746,0.675 1.489,1.307 2.082,1.174 0.753,-0.165 -0.081,-0.587 -0.081,-1.174 m 3.671,6.008 c 1.248,0.163 -0.509,-0.835 -3.258,-2.417 -2.749,-1.585 -7.63,-4.209 -7.416,-3.252 0.329,1.498 9.42,5.505 10.674,5.669 m 1.248,-4.665 c -0.082,-0.921 -1.001,-2.339 -1.832,-2.253 -0.838,0.082 -1.583,2.582 -0.505,3.171 1.098,0.592 2.417,0 2.337,-0.918 m 19.599,8.836 c -0.836,0.165 -1.923,1.502 -0.915,2.257 0.713,0.538 2.417,0.16 2.417,-0.428 0,-0.58 -0.666,-1.993 -1.502,-1.829 m -7.26,-3.405 c -0.17,0.665 0.418,1.668 1.332,1.749 0.865,0.077 0.585,-1.997 0,-2.338 -0.58,-0.334 -1.168,-0.079 -1.332,0.589 m 0.164,-3.405 c 1.67,1.579 4.343,7.414 5.923,6.666 1.584,-0.75 1.667,-4.837 0.496,-6.584 -1.165,-1.762 -2.743,-1.242 -3.749,-2.329 -1,-1.088 -1.336,-1.495 -2.253,-1.741 -0.915,-0.26 -9.255,-1.095 -9.087,0.488 0.149,1.456 7.003,1.912 8.67,3.5 m 14.095,4.149 c 0.082,-0.5 -4.757,-3.836 -5.426,-3.503 -0.667,0.334 0,3.673 0.75,4.501 0.845,0.943 4.59,-0.497 4.676,-0.998 m -2.664,7.751 c -0.415,-0.666 -1.084,-1.167 -1.666,-0.587 -0.588,0.587 0.167,1.25 0.664,1.837 0.439,0.513 1.416,-0.587 1.002,-1.25 m -13.762,-8.218 c 2.292,2.83 3.002,6.59 3.629,7.213 0.627,0.628 2.134,0.418 2.795,1.255 3.462,4.368 8.585,8.544 9.259,8.587 0.664,0.043 -6.217,-6.797 -8.296,-10.004 -2.089,-3.211 -4.385,-4.221 -5.551,-6.09 -1.163,-1.875 -1.291,-3.708 -1.084,-4.461 0.209,-0.753 -2.547,0.16 -3.462,-0.497 -0.917,-0.67 -5.377,-3.092 -5.337,-1.765 0.024,0.765 7.133,4.627 8.047,5.762 m 6.799,20.682 c 0.042,0.67 -1.126,4.047 -1.126,4.419 0,0.562 1.753,0.413 1.957,-0.207 0.213,-0.628 -0.372,-2.334 0.466,-3.625 0.828,-1.291 3.166,-3.127 3.166,-3.797 0,-0.663 -0.627,-2.334 -1.376,-1.456 -0.749,0.876 -3.127,3.998 -3.087,4.666 m 1.713,3.087 c 0.369,0.298 0.829,2.876 0.286,3.623 -0.543,0.756 -0.164,2.969 0.711,3.426 0.546,0.284 0.496,-2.167 1.04,-3.13 0.545,-0.957 2.461,-6.508 1.292,-8.338 -1.164,-1.839 -1.456,0.959 -2.086,1.497 -0.618,0.548 -1.622,2.633 -1.243,2.922 m 3.499,5.715 c 0.63,0.399 -0.252,2.25 -0.083,3.17 0.168,0.911 1.751,2.5 2.753,2.332 1.002,-0.165 0.665,-2.252 1.246,-4.994 0.587,-2.76 -1.292,-4.478 -1.995,-3.762 -0.421,0.415 0.329,4.25 0.079,4.506 -0.249,0.25 -0.657,-5.881 -2,-4.005 -1.166,1.623 -0.791,2.252 0,2.753 m 3.96,-6.633 c 0.376,0.375 1.292,-2.21 0.207,-3.295 -1.085,-1.079 -2.707,-1.75 -2.874,-1.626 -0.166,0.127 0.414,1.921 1.038,2.585 0.932,0.995 1.254,1.957 1.629,2.336 m 5.753,6.798 c 0.669,-0.542 0.25,-2.884 -0.369,-2.503 -0.63,0.372 -0.052,2.846 0.369,2.503 m 2.042,-0.417 c 0.712,1.339 0.545,3.215 0.92,3.46 0.371,0.251 1.54,0.168 1.54,-0.245 0,-0.587 -0.916,-1.132 -0.996,-1.711 -0.085,-0.588 0.332,-1.671 0.046,-2.043 -0.298,-0.38 -2.215,-0.798 -1.51,0.539 m -0.25,10.381 c -0.455,0 -1.081,1.463 -0.917,1.965 0.172,0.497 1.274,0.935 1.879,0.251 0.579,-0.672 -0.499,-2.216 -0.962,-2.216 m -2.495,6.177 c -0.421,0.458 -0.495,4.489 -0.084,4.547 0.874,0.124 0.703,-2.503 0.912,-2.923 0.212,-0.417 0.626,-0.374 0.879,-0.374 0.25,0 0.499,-0.706 0.25,-1.422 -0.25,-0.703 -1.547,-0.286 -1.957,0.172 m 5.295,1.499 c 0.455,-1.165 0.123,-3.377 -0.462,-3.291 -0.578,0.079 -2.489,5.152 -1.875,5.711 0.455,0.418 1.875,-1.253 2.337,-2.42 m -0.38,3.837 c -0.626,0.833 -1.119,3.805 -0.83,3.795 1.333,-0.041 1.454,-1.959 1.872,-2.377 0.415,-0.42 1.417,-0.923 1.499,-1.54 0.084,-0.628 -1.917,-0.716 -2.541,0.122 m 2.086,-14.514 c -0.039,-0.21 -0.875,-0.536 -1.212,-0.456 -0.334,0.081 -0.472,1.245 0,1.245 0.424,0 1.256,-0.58 1.212,-0.789 m -0.544,10.552 c -0.163,0.752 1.187,2.655 1.59,2.461 1.457,-0.706 1.375,-4.921 0.37,-4.836 -0.422,0.037 -0.584,0.664 -0.752,1.042 -0.165,0.375 -1.041,0.584 -1.208,1.333 m -7.92,5.086 c -0.627,1.542 3.121,6.824 2.917,7.503 -0.209,0.712 -0.626,1.002 -0.459,1.505 0.168,0.503 1.833,0.832 2.54,0.625 0.72,-0.209 -0.206,-1.168 -0.502,-1.627 -0.288,-0.454 0.05,-2.292 -0.16,-3.082 -0.213,-0.794 -2.381,-2.752 -2.503,-3.169 -0.124,-0.419 1.084,-1.043 1.623,-1.043 0.548,0 -0.415,-0.712 -0.953,-1.209 -0.548,-0.503 -1.882,-1.045 -2.503,0.497 m -1.087,4.047 c -0.332,0.375 -0.955,2.792 -1.046,3.794 -0.077,1.002 2.466,4.667 2.381,5.298 -0.078,0.624 0.712,2.535 1.625,1.75 0.519,-0.449 -0.164,-5.006 -1.292,-5.674 -1.123,-0.666 -0.709,-1.124 -0.374,-1.33 0.332,-0.212 2.296,-0.382 1.875,-0.796 -0.419,-0.417 -2.828,-3.415 -3.169,-3.042 m -1.582,7.634 c 0.166,1.327 -0.375,4.121 -0.962,4.121 -0.581,0 0.191,-5.27 -0.453,-5.332 -0.419,-0.047 -2.254,1.997 -1.963,3.082 0.29,1.086 0.877,2.751 0.75,3.417 -0.122,0.674 0.505,1.711 1.626,1.754 1.129,0.043 2.925,-2.044 3.129,-4.085 0.21,-2.043 -1.045,-3.544 -1.334,-3.841 -0.294,-0.286 -0.961,-0.456 -0.793,0.884 M 0.29,-29.729 c -0.165,-0.126 -1.332,1.456 -2.623,1.914 -1.294,0.461 -2.421,2.841 -1.958,3.462 0.458,0.626 1.084,2.667 0.875,3.131 -0.211,0.456 2.042,-1.752 2.458,-2.212 0.771,-0.85 1.248,-3.045 0.958,-3.126 -0.29,-0.085 -2.915,1.248 -2.962,1 -0.037,-0.251 1.588,-0.836 2.25,-1.794 0.672,-0.958 1.174,-2.251 1.002,-2.375 m -4.044,19.763 c -0.704,0.668 -1.531,2.897 -1.081,3.043 0.249,0.083 2.168,-1.876 3.29,-2.418 1.124,-0.541 5.385,-1.753 6.088,-2.546 0.714,-0.787 0.085,-1.582 -0.665,-1.957 -0.749,-0.376 -2.461,1.335 -3.044,1.919 -0.584,0.582 -3.877,1.288 -4.588,1.959 M -6.211,-11.8 c -0.877,0.5 -1.957,2.374 -1.798,2.539 0.17,0.171 4.887,-2.372 4.843,-3.082 -0.041,-0.708 -2.052,-0.026 -3.045,0.543 m -1.798,7.919 c 0.549,0.21 2.09,-0.619 2.132,-1.167 0.058,-0.747 -1.583,-1.376 -1.999,-0.958 -0.423,0.418 -0.674,1.918 -0.133,2.125 M -10.048,1.5 c 0.458,0.833 1.541,1.419 1.541,2.169 0,0.749 -0.871,2.253 -0.043,2.707 C -7.794,6.79 -7.213,5.209 -6.629,4.835 -6.043,4.461 -4.961,4.583 -5.127,4.044 -5.292,3.499 -6.836,3.837 -7.213,3.794 -7.588,3.753 -5.956,1.543 -6.376,1.252 -6.799,0.956 -7.876,1.417 -7.963,1.044 -8.042,0.665 -7.252,-1.671 -7.794,-1.838 -8.337,-2.003 -10.91,-0.06 -10.048,1.5 m -0.75,2.382 c -0.586,-0.675 -1.086,-0.257 -1.46,0.246 -0.375,0.5 0.249,1.332 -0.543,1.373 -0.794,0.043 -3.422,-0.54 -3.753,-0.206 -0.332,0.335 -0.371,0.584 -0.122,1.123 0.231,0.511 4.498,0.713 5.21,0.503 0.703,-0.208 1.256,-2.378 0.668,-3.039 m -8.757,5.83 c 0.029,0.518 2.294,1.125 3.753,0.46 1.459,-0.667 2.296,-2.46 1.957,-2.667 -0.331,-0.209 -3.747,-0.293 -4.374,0.122 -0.627,0.419 -1.379,1.295 -1.336,2.085 m -3.249,1.419 c -0.877,0.46 0.285,1.833 -0.335,2.499 -0.627,0.674 -1.585,1.627 -0.917,2.214 0.668,0.581 2.289,0.293 3.039,0.04 0.642,-0.212 0.836,1.083 1.629,1.083 0.792,0 3.379,-1.54 4.794,-1.874 1.414,-0.335 1.879,-1.212 1.752,-1.417 -0.125,-0.212 -1.545,-0.294 -0.375,-1.335 1.167,-1.045 1.503,-3.087 1.127,-3.17 -0.372,-0.085 -0.5,0.501 -0.877,0.754 -0.371,0.247 -0.753,-0.169 -1.295,0.08 -0.541,0.249 -1.961,3.211 -2.496,3.836 -0.545,0.625 -0.965,-0.25 -1.301,-0.417 -0.325,-0.166 -1.159,0.625 -1.705,0.75 -0.543,0.13 -0.915,0.13 -1.124,-0.415 -0.211,-0.543 2.583,-1.586 2.583,-2.083 0,-0.505 -3.622,-1.005 -4.499,-0.545 m 10.754,1.794 c 0.251,0.165 1.542,-1.13 1.92,-2.088 0.571,-1.459 0.707,-3.082 0.375,-3.125 -0.333,-0.04 -2.543,5.045 -2.295,5.213 M -4.254,0.29 c 0.295,0.962 0.545,3.127 0.838,3.592 0.294,0.451 1.456,1.413 1.917,1.036 C -1.042,4.543 0.425,3.837 1.253,3.794 2.088,3.753 3.337,2.373 3.671,1.457 4,0.542 3.791,-1.332 4.046,-1.671 4.298,-2.003 6.132,-1.754 6.585,-2.337 7.044,-2.922 5.796,-3.836 5.379,-4.213 4.959,-4.588 5.17,-6.964 4.801,-7.173 c -0.38,-0.21 -2.466,3.752 -2.798,4.339 -0.335,0.578 1.039,4.961 0,4.21 -1.041,-0.751 -1.169,-4.59 -0.999,-5.257 0.167,-0.663 -3.382,0.292 -3.588,0 -0.208,-0.289 4.457,-2.584 5.378,-2.959 0.917,-0.377 1.712,-3.669 1.589,-4.043 -0.13,-0.379 -1.878,0.917 -3.007,1.542 -1.126,0.629 -3.631,1.128 -4.129,1.628 -0.497,0.496 -0.413,2.417 -0.749,3.5 -0.331,1.085 -2.584,1.985 -2.584,2.709 0,0.71 1.687,1.314 1.832,1.794 M 7.34,-7.132 C 7.295,-7.797 6.424,-9.798 5.796,-9.508 c -0.626,0.293 0.5,1.623 0.545,2.459 0.037,0.833 -0.167,2.796 0.244,2.836 0.387,0.036 0.794,-2.252 0.755,-2.919 m -58.33,-94.45 c -1.833,-1.163 -25.344,-3.995 -27.019,-3.995 -1.665,0 -12.766,0.732 -14.43,1.237 -1.666,0.499 -24.855,20.053 -25.765,20.953 -1.9,1.856 0.334,2.229 1.882,5.204 0.873,1.685 0.816,5.264 2.667,3.837 1.084,-0.837 5.769,-3.029 9.338,-6.257 3.404,-3.088 10.352,-12.306 14.535,-13.191 9.04,-1.917 35.37,1.861 37.12,0.105 0.839,-0.835 3.503,-6.726 1.672,-7.893 m -12.631,-9.795 c -1.003,-1.501 -2.587,0.041 -3.585,0.211 -1.002,0.166 -3.464,-0.256 -3.127,0.414 0.332,0.669 9.176,5.669 10.176,5.669 0.994,0 3.244,0.585 3.413,0.09 0.221,-0.658 -5.878,-4.883 -6.877,-6.384 m -4.54,-4.54 c -1.002,0 -5.008,1.994 -4.174,2.832 0.833,0.835 4.836,0.669 5.501,-0.165 0.761,-0.949 -0.331,-2.667 -1.327,-2.667 m -40.074,41.982 c 0.892,-0.669 3.79,-2.654 4.286,-4.575 0.234,-0.889 -3.758,1.797 -5.114,2.993 -1.301,1.133 -2.939,1.861 -3.158,2.345 -0.447,1.002 3.097,-0.098 3.986,-0.763 m 23.723,-11.736 c -0.666,0.656 0.612,0.382 1.67,0.382 1.226,0 3.499,-0.056 4.167,0.441 0.666,0.505 1.116,-1.115 2.946,-2.164 1.836,-1.057 6.836,-4.447 7.898,-3.671 1.057,0.786 2.501,0.671 3.723,-0.275 1.222,-0.95 1.779,-2.225 -1.446,-1.449 -3.217,0.781 -7.389,2.283 -8.894,3.447 -1.497,1.165 -9.39,2.614 -10.064,3.289 m -9.24,15.124 c 0,0 4.499,-2.244 7.234,-4.97 2.724,-2.732 3.548,-5.811 3.548,-5.811 0,0 -1.99,1.709 -4.818,4.533 -2.816,2.83 -5.964,6.248 -5.964,6.248 m 4.902,-11.132 c -0.389,0.221 -1.107,0.891 -1.107,1.508 0,0.607 1.219,0.833 1.776,0.272 0.558,-0.548 0.156,-2.245 -0.669,-1.78 m -3.94,6.231 c -0.783,-0.611 -2.449,-0.165 -2.896,0.386 -0.44,0.56 1.165,1.278 1.334,1.337 0.168,0.052 2.26,-1.169 1.562,-1.723 m -16.582,11.11 c 2.002,-2.867 6.91,-9.495 6.91,-9.495 0,0 -4.578,1.924 -8.855,9.045 -4.279,7.125 -2.826,12.787 -2.826,12.787 0,0 3.957,-3.443 9.233,-11.05 5.276,-7.605 9.468,-16.348 9.468,-16.348 0,0 -4.467,4.54 -9.693,10.986 -1.718,2.126 -5.582,8.233 -6.897,10.502 0.496,-1.415 1.105,-4.195 2.66,-6.427 m 1.355,19.083 c -1.247,4.336 -0.63,10.968 0.075,14.054 0.702,3.086 0.726,5.366 2.143,8.256 1.822,3.71 3.337,9.172 3.337,9.172 0.842,-2.275 -0.832,-7.17 -2.253,-9.952 -1.414,-2.777 -2.689,-10.79 -2.689,-16.673 0,-5.885 5.499,-20.171 5.499,-20.171 0,0 -1.539,0.846 -2.104,1.4 -0.564,0.559 -0.564,1.971 -0.855,4.299 -0.296,2.323 -1.899,5.28 -3.153,9.615 m 0.31,25.552 c 0,0 1.054,2.429 2.355,6.972 1.309,4.546 1.992,7.614 3.24,9.912 1.241,2.298 0.757,4.704 0.757,4.704 0,0 -0.768,-2.059 -1.863,-4.417 -1.099,-2.359 -2.101,-3.812 -2.639,-5.614 -0.54,-1.797 0.019,1.117 0.019,1.117 0,0 0.796,3.545 2.992,7.947 2.2,4.405 3.967,6.177 4.329,6.537 0.359,0.362 0.606,-3.185 -1.142,-9.847 -1.741,-6.666 -3.501,-9.698 -4.77,-12.651 -1.267,-2.949 -3.468,-6.972 -3.468,-6.972 z m 9.877,13.378 c 0.829,1.399 3.373,5.894 3.373,5.894 0,0 1.334,0.99 2.114,0.99 0.774,0 0.414,-2.255 0.133,-6.188 -0.279,-3.931 -2.808,-7.027 -4.21,-6.741 l -1.41,0.283 c 0,0 0.911,3.745 2.4,5.992 1.492,2.247 2.064,5.155 2.064,5.155 0,0 -0.993,-0.454 -2.347,-3.413 -1.352,-2.959 -4.36,-9.983 -4.36,-9.983 l -0.148,2.249 c 0,0 1.567,4.36 2.391,5.762 m 4.638,10.116 c 1.745,2.316 3.998,4.317 7.116,7.436 3.113,3.117 4.124,3.805 4.124,3.805 0,0 -3.933,-2.25 -5.447,-3.73 -1.51,-1.48 -3.753,-3.651 -3.022,-1.607 0.729,2.032 4.222,3.86 6.515,5.721 2.283,1.851 5.468,1.86 5.468,1.86 0,0 -0.277,-2.244 -0.98,-2.95 -0.707,-0.704 -3.236,-1.682 -6.087,-4.291 -2.847,-2.61 -7.124,-7.508 -7.124,-7.508 0,0 -2.314,-1.052 -0.563,1.264 m 16.587,9.692 c 1.537,-1.407 1.157,-2.209 -4.345,-7.292 -5.501,-5.079 -8.728,-5.351 -8.728,-5.351 0,0 2.955,2.876 5.386,5.243 2.431,2.371 5.571,5.437 5.571,5.437 0,0 -2.252,-0.159 -4.777,-2.957 -2.517,-2.802 -5.48,-5.335 -5.48,-5.335 0,0 0.045,0.165 0.17,0.466 0.389,0.961 1.545,3.243 4.383,5.632 3.743,3.146 6.265,5.563 7.82,4.157 m -18.837,-34.916 c -1.492,-5.507 -1.417,-3.875 -4.589,-12.169 0,0 3.331,12.519 3.048,13.788 -0.282,1.262 -1.833,-5.327 -3.992,-11.999 -2.999,-9.282 -4.16,-11.751 -4.16,-11.751 l -0.141,0.274 c 0,0 0.103,1.511 -0.143,2.536 -0.237,1.023 0,1.267 0,1.267 0,0 0.43,0.599 0.895,3.284 0.462,2.688 0.696,5.967 2.608,11.573 2.546,7.478 6.474,10.294 6.474,10.294 0,0 0.758,-4.335 0,-7.097 m -2.261,-39.225 c -0.403,1.175 -1.245,2.673 -1.245,5.797 0,3.124 2.513,10.649 2.513,10.649 0,0 1.386,-1.163 2.95,-7.886 1.556,-6.724 2.217,-9.555 1.556,-12.733 -0.657,-3.184 -0.995,-4.5 -0.995,-4.5 0,0 -1.39,7.367 -1.785,10.254 -0.393,2.887 -0.883,5.047 -0.883,6.852 0,1.807 -1.014,3.782 -1.014,3.782 0,0 -0.372,-1.324 -0.372,-2.811 0,-1.501 0.805,-4.431 1.308,-8.163 0.503,-3.737 0.764,-4.913 1.05,-6.373 0.289,-1.464 0.095,-4.22 0.095,-4.22 0,0 -2.768,8.19 -3.178,9.352 m 5.979,9.96 c 0.335,0 1.12,-2.302 1.12,-4.581 v -3.675 c 0,0 -0.352,4.904 -1.194,5.892 -0.84,0.979 0.074,2.364 0.074,2.364 m 10.659,-32.257 c -0.335,-0.67 -1.556,-1.055 -2.114,-0.494 -0.556,0.555 -0.609,1.157 -0.164,1.438 0.506,0.323 2.612,-0.274 2.278,-0.944 m 9.857,-3.234 c 1.099,0.811 2.875,1.735 3.875,0.95 1.004,-0.776 3.832,-1.773 5.506,-2.333 1.67,-0.553 3.596,-2.581 3.372,-3.585 -0.221,-0.995 -6.761,2.381 -7.874,3.718 -1.117,1.329 -1.879,-3.004 -3.507,-1.756 -0.524,0.406 -2.473,2.183 -1.372,3.006 m -38.422,64.674 c -0.413,-2.138 -0.369,-6.827 -0.593,-11.13 -0.21,-4.054 -0.715,-7.765 -0.528,-8.675 0.387,-1.87 1.121,-4.074 1.121,-4.074 0,0 -2.386,2.085 -3.16,11.63 -0.418,5.173 0.914,16.48 0.914,16.48 0,0 -1.825,-1.188 -1.965,-11.667 -0.141,-10.48 2.524,-16.304 2.524,-16.304 0,0 -1.717,2.503 -3.09,6.327 -1.376,3.822 -2.104,9.558 -1.263,16.93 0.848,7.367 4.919,12.298 4.919,12.298 0,0 2.495,-4.688 1.121,-11.815 M 19.975,-32.272 c 0.835,1.329 -1.087,5.085 -1.336,6.169 -0.247,1.086 0.17,6.506 -0.588,7.84 -0.749,1.334 -2.08,3.918 -2.246,5.336 -0.167,1.417 -0.086,2.004 -1.334,2.25 -1.252,0.251 -3.922,3.504 -5.001,4.507 C 8.386,-5.172 7.88,-0.252 7.212,0.997 6.546,2.248 6.296,-0.502 5.547,-0.084 4.801,0.332 3.791,4.003 2.707,5.42 1.626,6.835 1.208,5.667 0.29,5.501 c -0.917,-0.166 -3.751,2.004 -5.085,3 -1.329,1.004 -2.004,2.005 -3.334,2.17 -1.335,0.166 -1.56,3.618 -4.838,5.338 -2.223,1.17 -4.783,1.723 -6.004,3.059 -0.92,1.005 -2.344,-0.542 -2.834,-0.892 -1.164,-0.83 -3.031,0.486 -4.172,-1.162 -0.749,-1.086 -0.082,-2.256 0.585,-3.173 0.668,-0.916 0.081,-1.5 0.668,-3.084 0.58,-1.586 2.169,-2.168 3.087,-2.668 0.918,-0.501 1.499,-2.001 2.83,-3.335 1.339,-1.337 3.005,-0.668 4.923,-2.169 1.918,-1.501 1.083,-2.167 2.5,-3.504 1.422,-1.337 -0.415,-2.417 1.671,-4.338 2.083,-1.916 1.255,-2.582 -0.167,-4.503 -1.414,-1.915 4.42,-3.498 6.004,-4.5 1.583,-1.002 0.332,-2.835 -0.582,-3.584 -0.919,-0.752 -2.256,0.663 -1.419,-1.001 0.831,-1.675 -0.499,-5.009 -0.247,-6.842 0.247,-1.83 6.995,-8.671 8.251,-10.171 1.252,-1.502 -0.085,-4.839 3.335,-9.591 3.417,-4.756 1.917,-5.842 0.998,-7.259 -0.913,-1.421 -2.998,-1.421 -3.836,-2.669 -0.834,-1.251 -0.916,-3.287 -1.581,-2.951 -0.666,0.334 -2.776,-2.67 -2.001,-1.552 0.775,1.108 2.334,2.884 1.89,4.218 -0.444,1.343 -0.555,3.23 -0.555,5.342 0,2.111 -1.891,2 -3.895,1.336 -1.997,-0.668 -1.332,-2.338 -3.664,-2.891 -2.339,-0.557 -2.114,-3.002 -2.78,-4.902 -0.667,-1.883 -2.111,-1.887 -2.445,-2.997 -0.334,-1.111 2.779,-7.227 4.108,-8.778 1.336,-1.558 0.451,-1.897 -1.222,-4.785 -1.662,-2.896 -3.112,-1.109 -4.78,-2.781 -1.669,-1.671 -5.779,-9.897 -7.776,-10.568 -2.008,-0.66 -2.341,1.447 -4.006,2.452 -1.668,0.999 -11.792,-4.895 -14.009,-6.564 -2.229,-1.663 -3.674,-0.334 -5.339,1.115 -1.669,1.449 -3.118,0 -6.562,-1.333 -3.446,-1.335 -4.777,0.78 -6.113,2.667 -1.333,1.893 -11.188,5.911 -12.118,5.338 -0.326,-0.2 -2.86,-1.144 -2.401,-2.722 0.459,-1.582 -4.966,1.835 -4.966,1.835 -1.293,0.787 -4.963,7.481 -8.28,10.132 -3.317,2.647 -5.518,3.532 -5.518,3.532 0,0 3.066,6.422 2.227,12.369 -0.839,5.943 -1.504,9.015 -2.208,9.015 -0.71,0 -1.268,-1.148 -1.268,-0.843 0,1.266 -2.651,7.306 -3.656,7.306 -1.002,0 -3.091,-6.176 -3.507,-8.852 -0.42,-2.665 -0.805,-5.852 0.703,-9.187 1.504,-3.319 2.066,-7.131 2.066,-7.131 0,0 -4.588,8.009 -6.28,15.268 -0.825,3.521 -1.502,5.713 -0.978,6.329 1.705,2.024 1.127,2.536 1.127,2.536 0,0 0.828,2.03 2.195,5.314 1.364,3.283 4.924,11.672 6.375,14.919 1.803,4.066 0.67,8.91 0.67,8.91 0,0 1.017,1.972 1.876,5.054 0.853,3.08 0.922,5.611 0.922,5.611 0,0 6.682,3.258 12.397,9.732 5.444,6.163 4.038,7.137 3.105,8.073 -0.934,0.935 -1.831,0.843 -1.831,0.843 0.528,1.354 0.23,3.032 0.23,3.032 0,0 -5.017,1.656 -13.707,-7.027 -3.359,-3.365 -5.776,-8.376 -5.776,-8.376 0,0 -0.558,0.558 -0.732,1.8 -0.168,1.237 0.949,5.81 -1.374,4.243 -6.993,-4.703 -8.851,-20.452 -8.851,-20.452 0,0 -1.711,4.436 -2.666,4.436 -1.995,0 -7.767,-9.701 -6.847,-23.179 0.994,-14.644 5.413,-16.338 8.385,-19.96 2.986,-3.62 2.252,-5.651 2.252,-6.606 0,0 -6.42,7.808 -8.576,7.162 -2.148,-0.644 -0.595,-9.116 2.831,-15.055 2.764,-4.8 10.779,-12.768 18.347,-17.648 1.809,-1.16 3.587,-2.153 5.261,-2.878 2.589,-1.119 2.997,-1.963 5.465,-3.354 1.06,-0.587 10.193,-1.518 9.31,-3.979 -0.401,-1.14 -11.127,-0.322 -13.967,-0.322 -2.87,0 -4.533,1.377 -6.274,3.058 -0.928,0.894 -7.331,8.093 -7.742,9.339 -2.401,7.357 -6.81,9.197 -13.034,9.111 -3.397,-0.044 -0.903,-5.222 -5.407,-9.476 -2.229,-2.112 3.892,-6.216 6.981,-8.848 4.239,-3.609 17.951,-15.347 21.072,-15.972 3.395,-0.687 14.94,-0.985 18.021,-0.572 3.085,0.415 5.335,0.501 6.919,0.501 1.583,0 -4.75,-3.843 -6.755,-4.927 -2,-1.083 2.586,-4.342 4.424,-5.917 1.833,-1.59 4.25,-0.249 6.755,2.667 2.499,2.917 7.664,8.005 9.918,8.999 2.247,1.002 1.916,-1.33 5.247,-0.908 3.338,0.405 0.752,0.743 3.925,0.405 3.166,-0.324 6.336,-4.991 9.505,-8.582 3.168,-3.591 5.917,-2.756 8.505,-1.584 2.586,1.17 1.5,2.499 -0.583,5 -2.091,2.508 -4.754,2.751 -3.25,3.17 1.502,0.419 23.282,-0.199 25.518,0.362 4.721,1.18 18.067,14.925 20.902,17.507 2.838,2.591 6.445,4.544 7.445,7.317 0.961,2.65 -0.799,2.481 -1.578,6.489 -0.268,1.375 -0.468,5.758 -3.155,5.82 -1.136,0.026 -3.76,-0.119 -5.32,-2.152 -1.182,-1.544 -1.717,-3.458 -3.475,-5.27 -6.664,-6.86 -14.121,-14.389 -15.886,-15.019 -2.801,-0.985 -23.837,-3.044 -7.283,-0.187 1.065,0.181 12.013,5.919 12.546,6.248 1.767,1.099 1.094,1.512 1.534,2.962 0.62,2.059 3.195,3.558 3.195,4.026 0,1.006 0.076,1.584 2.578,2.586 2.506,1.002 3.005,2.255 3.17,3.925 0.168,1.661 1.002,1.745 2.001,3.582 1.001,1.837 2.755,4.171 2.919,5.503 0.169,1.332 2.582,3.083 2.838,5.255 0.247,2.168 1.589,1.999 1.249,3.921 -0.337,1.917 0.253,3.088 0.419,5.424 0.168,2.333 -1.087,3.501 -3.255,2.747 -2.162,-0.746 -1.082,0.25 -1.918,1.254 -0.831,0.998 2.668,6.425 4.086,8.256 1.42,1.835 0,2.669 -0.416,2.919 -0.421,0.253 0.666,0.587 1.503,1.92" style="fill:#379975;fill-opacity:1;fill-rule:evenodd;stroke:none" id="path38"/>
        </g>
        <g id="g40" transform="translate(62.0547,37.5527)">
          <path d="M 0,0 C 0.137,-0.009 0.341,0 0.554,0.012 1.733,0.1 2.319,0.763 2.243,1.86 2.183,2.821 1.574,3.39 0.417,3.302 0.131,3.284 -0.082,3.244 -0.223,3.203 Z M -0.797,3.551 C -0.468,3.625 -0.073,3.687 0.362,3.718 1.15,3.772 1.721,3.63 2.115,3.332 2.521,3.027 2.776,2.573 2.819,1.921 2.868,1.258 2.683,0.704 2.319,0.299 1.942,-0.106 1.303,-0.356 0.479,-0.413 0.08,-0.437 -0.24,-0.446 -0.521,-0.437 Z" style="fill:#379975;fill-opacity:1;fill-rule:nonzero;stroke:none" id="path42"/>
        </g>
        <g id="g44" transform="translate(67.8599,39.4561)">
          <path d="m 0,0 -1.645,-0.115 0.102,-1.461 1.839,0.127 0.031,-0.443 -2.393,-0.163 -0.28,4.05 2.296,0.165 0.032,-0.438 -1.744,-0.12 0.088,-1.28 1.645,0.109 z" style="fill:#379975;fill-opacity:1;fill-rule:nonzero;stroke:none" id="path46"/>
        </g>
        <g id="g48" transform="translate(72.1934,38.0244)">
          <path d="m 0,0 c -0.238,-0.104 -0.721,-0.269 -1.294,-0.311 -0.642,-0.043 -1.179,0.075 -1.623,0.426 -0.386,0.305 -0.651,0.835 -0.695,1.47 -0.085,1.205 0.729,2.151 2.153,2.25 0.491,0.038 0.889,-0.036 1.078,-0.11 l -0.11,-0.439 c -0.234,0.08 -0.521,0.141 -0.95,0.107 -1.035,-0.066 -1.665,-0.727 -1.592,-1.745 0.07,-1.029 0.752,-1.589 1.751,-1.523 0.358,0.024 0.598,0.088 0.721,0.155 L -0.645,1.492 -1.504,1.437 -1.53,1.855 -0.134,1.953 Z" style="fill:#379975;fill-opacity:1;fill-rule:nonzero;stroke:none" id="path50"/>
        </g>
        <g id="g52" transform="translate(72.8232,41.9639)">
          <path d="M 0,0 0.554,0.033 0.805,-3.58 2.619,-3.452 2.648,-3.894 0.281,-4.057 Z" style="fill:#379975;fill-opacity:1;fill-rule:nonzero;stroke:none" id="path54"/>
        </g>
        <g id="g56" transform="translate(76.4243,42.2139)">
          <path d="M 0,0 0.28,-4.057 -0.276,-4.09 -0.555,-0.036 Z" style="fill:#379975;fill-opacity:1;fill-rule:nonzero;stroke:none" id="path58"/>
        </g>
        <g id="g60" transform="translate(79.791,39.2861)">
          <path d="m 0,0 c 0.367,-0.187 0.884,-0.318 1.423,-0.281 0.8,0.058 1.24,0.487 1.202,1.076 C 2.586,1.32 2.239,1.618 1.401,1.86 0.387,2.131 -0.258,2.587 -0.316,3.39 -0.376,4.291 0.361,5.011 1.538,5.095 2.15,5.137 2.617,5.033 2.888,4.905 L 2.716,4.279 C 2.519,4.375 2.103,4.515 1.555,4.474 0.725,4.415 0.446,3.923 0.473,3.535 0.51,2.993 0.894,2.752 1.755,2.499 2.806,2.194 3.353,1.759 3.411,0.905 3.472,0.021 2.844,-0.812 1.411,-0.916 0.827,-0.95 0.177,-0.823 -0.16,-0.643 Z" style="fill:#379975;fill-opacity:1;fill-rule:nonzero;stroke:none" id="path62"/>
        </g>
        <g id="g64" transform="translate(84.8457,42.3486)">
          <path d="M 0,0 -1.29,-0.087 -1.324,0.357 1.819,0.576 1.852,0.129 0.552,0.041 0.804,-3.57 0.249,-3.604 Z" style="fill:#379975;fill-opacity:1;fill-rule:nonzero;stroke:none" id="path66"/>
        </g>
        <g id="g68" transform="translate(87.7578,42.999)">
          <path d="m 0,0 0.167,-2.41 c 0.063,-0.903 0.511,-1.257 1.078,-1.215 0.622,0.039 1.005,0.47 0.946,1.357 L 2.021,0.134 2.575,0.177 2.738,-2.189 C 2.825,-3.436 2.173,-3.994 1.255,-4.056 0.386,-4.114 -0.3,-3.692 -0.39,-2.426 l -0.166,2.385 z" style="fill:#379975;fill-opacity:1;fill-rule:nonzero;stroke:none" id="path70"/>
        </g>
        <g id="g72" transform="translate(92.1563,39.6367)">
          <path d="M 0,0 C 0.14,-0.007 0.344,0 0.554,0.02 1.733,0.101 2.32,0.773 2.242,1.864 2.183,2.82 1.577,3.386 0.417,3.307 0.132,3.288 -0.079,3.254 -0.222,3.211 Z m -0.797,3.552 c 0.329,0.074 0.724,0.137 1.159,0.17 C 1.15,3.775 1.723,3.634 2.117,3.333 2.523,3.031 2.776,2.577 2.822,1.922 2.869,1.261 2.688,0.701 2.32,0.307 1.945,-0.102 1.302,-0.354 0.48,-0.413 0.082,-0.442 -0.241,-0.442 -0.521,-0.43 Z" style="fill:#379975;fill-opacity:1;fill-rule:nonzero;stroke:none" id="path74"/>
        </g>
        <g id="g76" transform="translate(96.1699,43.5771)">
          <path d="m 0,0 0.282,-4.047 -0.555,-0.039 -0.279,4.054 z" style="fill:#379975;fill-opacity:1;fill-rule:nonzero;stroke:none" id="path78"/>
        </g>
        <g id="g80" transform="translate(118.4131,38.041)">
          <path d="m 0,0 c -0.357,-0.12 -1.066,-0.285 -1.889,-0.255 -0.916,0.025 -1.667,0.273 -2.247,0.834 -0.507,0.501 -0.806,1.284 -0.778,2.186 0.057,1.728 1.349,2.95 3.389,2.881 0.704,-0.026 1.257,-0.184 1.516,-0.316 l -0.22,-0.596 c -0.319,0.15 -0.722,0.269 -1.335,0.284 -1.477,0.055 -2.473,-0.797 -2.519,-2.249 -0.047,-1.46 0.846,-2.366 2.269,-2.415 0.513,-0.013 0.869,0.049 1.05,0.128 l 0.056,1.723 -1.226,0.038 0.02,0.603 2.002,-0.064 z" style="fill:#379975;fill-opacity:1;fill-rule:nonzero;stroke:none" id="path82"/>
        </g>
        <g id="g84" transform="translate(120.1694,41.79)">
          <path d="M 0,0 -0.077,-2.409 C -0.106,-3.31 0.302,-3.716 0.871,-3.731 1.494,-3.754 1.918,-3.37 1.946,-2.475 L 2.024,-0.063 2.581,-0.077 2.502,-2.458 C 2.462,-3.7 1.759,-4.185 0.836,-4.156 c -0.869,0.025 -1.509,0.515 -1.471,1.779 l 0.078,2.395 z" style="fill:#379975;fill-opacity:1;fill-rule:nonzero;stroke:none" id="path86"/>
        </g>
        <g id="g88" transform="translate(126.8921,37.6934)">
          <path d="m 0,0 c -0.25,-0.088 -0.746,-0.204 -1.32,-0.186 -0.646,0.023 -1.17,0.193 -1.573,0.591 -0.356,0.346 -0.565,0.895 -0.544,1.532 0.039,1.207 0.944,2.071 2.369,2.022 0.493,-0.017 0.879,-0.132 1.06,-0.226 L -0.159,3.311 C -0.384,3.417 -0.662,3.51 -1.093,3.517 -2.128,3.552 -2.825,2.954 -2.855,1.937 -2.889,0.911 -2.266,0.281 -1.267,0.25 c 0.359,-0.018 0.606,0.031 0.733,0.081 l 0.04,1.21 -0.857,0.032 0.012,0.419 1.403,-0.043 z" style="fill:#379975;fill-opacity:1;fill-rule:nonzero;stroke:none" id="path90"/>
        </g>
        <g id="g92" transform="translate(127.9136,41.543)">
          <path d="M 0,0 0.559,-0.018 0.439,-3.64 2.258,-3.696 2.242,-4.141 -0.13,-4.066 Z" style="fill:#379975;fill-opacity:1;fill-rule:nonzero;stroke:none" id="path94"/>
        </g>
        <g id="g96" transform="translate(131.5225,41.4268)">
          <path d="m 0,0 -0.131,-4.065 -0.556,0.017 0.128,4.068 z" style="fill:#379975;fill-opacity:1;fill-rule:nonzero;stroke:none" id="path98"/>
        </g>
        <g id="g100" transform="translate(134.6797,39.167)">
          <path d="M 0,0 -1.646,0.05 -1.696,-1.411 0.148,-1.474 0.134,-1.91 -2.265,-1.837 -2.131,2.224 0.17,2.15 0.156,1.713 -1.592,1.773 -1.632,0.48 0.016,0.431 Z" style="fill:#379975;fill-opacity:1;fill-rule:nonzero;stroke:none" id="path102"/>
        </g>
        <g id="g104" transform="translate(135.7271,41.293)">
          <path d="M 0,0 0.553,-0.016 0.437,-3.641 2.254,-3.699 2.241,-4.142 -0.131,-4.062 Z" style="fill:#379975;fill-opacity:1;fill-rule:nonzero;stroke:none" id="path106"/>
        </g>
        <g id="g108" transform="translate(142.293,38.8037)">
          <path d="M 0,0 C -0.014,0.564 -0.031,1.257 -0.014,1.753 H -0.028 C -0.192,1.289 -0.378,0.785 -0.613,0.223 L -1.425,-1.723 -1.84,-1.711 -2.474,0.248 C -2.659,0.833 -2.805,1.356 -2.909,1.844 H -2.924 C -2.949,1.34 -3.004,0.67 -3.062,0.054 l -0.172,-1.742 -0.518,0.018 0.423,4.049 0.7,-0.017 0.664,-1.992 c 0.159,-0.504 0.282,-0.955 0.384,-1.38 h 0.014 c 0.128,0.407 0.293,0.843 0.5,1.35 L -0.25,2.288 0.452,2.257 0.586,-1.804 0.044,-1.79 Z" style="fill:#379975;fill-opacity:1;fill-rule:nonzero;stroke:none" id="path110"/>
        </g>
        <g id="g112" transform="translate(144.188,38.9678)">
          <path d="m 0,0 c -0.028,-0.878 0.439,-1.668 1.309,-1.697 0.87,-0.027 1.388,0.722 1.419,1.641 C 2.755,0.763 2.338,1.618 1.425,1.648 0.511,1.673 0.03,0.885 0,0 M 3.309,-0.049 C 3.264,-1.437 2.351,-2.155 1.265,-2.126 0.135,-2.085 -0.619,-1.225 -0.581,0.005 -0.539,1.298 0.324,2.112 1.458,2.077 2.625,2.036 3.349,1.168 3.309,-0.049" style="fill:#379975;fill-opacity:1;fill-rule:nonzero;stroke:none" id="path114"/>
        </g>
        <g id="g116" transform="translate(37.813,63.3574)">
          <path d="m 0,0 -2.247,-2.598 c -0.845,-0.977 -0.746,-1.788 -0.13,-2.324 0.675,-0.581 1.489,-0.542 2.323,0.426 l 2.247,2.6 0.602,-0.511 -2.216,-2.567 c -1.163,-1.349 -2.381,-1.251 -3.377,-0.388 -0.941,0.817 -1.212,1.936 -0.034,3.301 l 2.233,2.582 z" style="fill:#379975;fill-opacity:1;fill-rule:nonzero;stroke:none" id="path118"/>
        </g>
        <g id="g120" transform="translate(37.7563,55.751)">
          <path d="M 0,0 2.657,3.079 3.115,2.684 2.797,0.232 C 2.721,-0.331 2.63,-0.818 2.508,-1.257 L 2.524,-1.27 c 0.316,0.452 0.632,0.829 1.044,1.313 L 4.682,1.325 5.073,0.986 2.417,-2.092 1.994,-1.719 2.322,0.718 C 2.393,1.26 2.481,1.788 2.612,2.26 L 2.593,2.269 C 2.282,1.858 1.966,1.49 1.526,0.979 L 0.392,-0.338 Z" style="fill:#379975;fill-opacity:1;fill-rule:nonzero;stroke:none" id="path122"/>
        </g>
        <g id="g124" transform="translate(44.0176,55.7129)">
          <path d="m 0,0 -2.657,-3.073 -0.42,0.358 2.654,3.08 z" style="fill:#379975;fill-opacity:1;fill-rule:nonzero;stroke:none" id="path126"/>
        </g>
        <g id="g128" transform="translate(42.8398,51.3574)">
          <path d="M 0,0 1.602,3.983 2.055,3.595 1.245,1.646 C 1.022,1.121 0.817,0.636 0.598,0.198 H 0.606 C 1.005,0.472 1.468,0.746 1.965,1.026 L 3.822,2.065 4.266,1.682 0.457,-0.399 Z" style="fill:#379975;fill-opacity:1;fill-rule:nonzero;stroke:none" id="path130"/>
        </g>
        <g id="g132" transform="translate(47.751,49.6367)">
          <path d="m 0,0 -1.248,1.07 -0.957,-1.103 1.396,-1.208 -0.289,-0.331 -1.816,1.563 2.659,3.077 L 1.486,1.562 1.199,1.23 -0.124,2.373 -0.961,1.399 0.284,0.326 Z" style="fill:#379975;fill-opacity:1;fill-rule:nonzero;stroke:none" id="path134"/>
        </g>
        <g id="g136" transform="translate(49.0664,48.832)">
          <path d="m 0,0 0.423,-0.366 c 0.442,-0.388 0.926,-0.4 1.231,-0.043 0.341,0.397 0.191,0.828 -0.249,1.205 -0.2,0.183 -0.349,0.28 -0.437,0.33 z M 0.793,1.763 C 1.033,1.613 1.364,1.376 1.646,1.133 2.091,0.755 2.31,0.419 2.362,0.079 2.399,-0.197 2.314,-0.486 2.104,-0.726 1.757,-1.134 1.257,-1.165 0.827,-0.987 L 0.816,-1 C 0.99,-1.291 0.949,-1.646 0.749,-2.027 0.484,-2.547 0.304,-2.91 0.268,-3.086 l -0.43,0.37 c 0.027,0.135 0.18,0.458 0.423,0.919 0.271,0.506 0.235,0.823 -0.133,1.16 l -0.393,0.34 -1.147,-1.333 -0.416,0.357 z" style="fill:#379975;fill-opacity:1;fill-rule:nonzero;stroke:none" id="path138"/>
        </g>
        <g id="g140" transform="translate(50.2202,45.8291)">
          <path d="M 0,0 C 0.084,-0.274 0.279,-0.591 0.566,-0.835 0.988,-1.211 1.422,-1.211 1.692,-0.9 1.934,-0.616 1.912,-0.298 1.611,0.232 1.241,0.867 1.146,1.413 1.516,1.845 1.93,2.316 2.652,2.316 3.279,1.779 3.604,1.499 3.784,1.206 3.856,1.019 L 3.461,0.791 C 3.414,0.933 3.272,1.206 2.981,1.463 2.54,1.845 2.158,1.734 1.976,1.528 1.725,1.242 1.8,0.926 2.104,0.38 2.475,-0.293 2.53,-0.778 2.141,-1.229 1.729,-1.704 1.007,-1.805 0.247,-1.15 c -0.31,0.272 -0.568,0.65 -0.646,0.909 z" style="fill:#379975;fill-opacity:1;fill-rule:nonzero;stroke:none" id="path142"/>
        </g>
        <g id="g144" transform="translate(55.3281,45.9355)">
          <path d="m 0,0 -2.657,-3.071 -0.424,0.367 2.656,3.074 z" style="fill:#379975;fill-opacity:1;fill-rule:nonzero;stroke:none" id="path146"/>
        </g>
        <g id="g148" transform="translate(56.4189,44.4121)">
          <path d="M 0,0 -0.979,0.842 -0.688,1.176 1.696,-0.88 1.404,-1.224 0.421,-0.372 -1.945,-3.11 -2.365,-2.74 Z" style="fill:#379975;fill-opacity:1;fill-rule:nonzero;stroke:none" id="path150"/>
        </g>
        <g id="g152" transform="translate(59.6772,43.4004)">
          <path d="m 0,0 -0.016,-0.915 -0.338,0.293 -0.153,1.065 z m -1.487,-3.076 0.445,1.165 c 0.098,0.26 0.21,0.481 0.316,0.706 l -0.008,0.007 C -0.937,-1.334 -1.151,-1.486 -1.38,-1.615 l -1.084,-0.614 z m -1.329,0.603 -1.17,-0.675 -0.432,0.377 3.757,2.122 0.496,-0.424 -1.559,-4.03 -0.445,0.389 0.491,1.262 z" style="fill:#379975;fill-opacity:1;fill-rule:nonzero;stroke:none" id="path154"/>
        </g>
        <g id="g156" transform="translate(153.6626,45.8184)">
          <path d="M 0,0 C -0.587,0.562 -1.296,1.241 -1.787,1.759 L -1.8,1.747 c 0.301,-0.639 0.625,-1.341 0.948,-2.124 l 1.139,-2.79 -0.433,-0.413 -2.612,1.339 c -0.776,0.403 -1.45,0.778 -2.049,1.167 l -0.011,-0.012 c 0.481,-0.541 1.109,-1.277 1.67,-1.954 l 1.58,-1.924 -0.547,-0.512 -3.655,4.521 0.73,0.684 2.673,-1.333 c 0.672,-0.346 1.254,-0.678 1.783,-1.005 l 0.015,0.013 c -0.282,0.537 -0.561,1.152 -0.863,1.869 L -2.561,2.054 -1.833,2.74 2.41,-1.224 1.845,-1.754 Z" style="fill:#379975;fill-opacity:1;fill-rule:nonzero;stroke:none" id="path158"/>
        </g>
        <g id="g160" transform="translate(157.2646,48.0283)">
          <path d="M 0,0 -1.109,0.562 C -1.36,0.697 -1.571,0.825 -1.78,0.954 L -1.786,0.943 C -1.672,0.73 -1.546,0.5 -1.437,0.267 l 0.497,-1.146 z m -0.741,-1.256 0.553,-1.236 -0.417,-0.395 -1.721,3.959 0.48,0.451 3.838,-1.966 -0.428,-0.399 -1.207,0.616 z" style="fill:#379975;fill-opacity:1;fill-rule:nonzero;stroke:none" id="path162"/>
        </g>
        <g id="g164" transform="translate(158.7026,50.0146)">
          <path d="M 0,0 0.41,0.392 C 0.837,0.792 0.9,1.277 0.581,1.617 0.222,1.995 -0.224,1.889 -0.647,1.491 -0.841,1.309 -0.963,1.167 -1.011,1.09 Z m -1.667,0.979 c 0.171,0.226 0.442,0.53 0.713,0.786 0.426,0.396 0.78,0.584 1.123,0.604 C 0.444,2.378 0.727,2.262 0.947,2.026 1.309,1.641 1.296,1.137 1.071,0.73 L 1.083,0.717 C 1.394,0.863 1.734,0.778 2.096,0.548 2.586,0.225 2.927,0.011 3.098,-0.05 L 2.685,-0.438 C 2.551,-0.391 2.246,-0.203 1.818,0.085 1.343,0.406 1.026,0.399 0.65,0.078 L 0.273,-0.28 1.477,-1.571 1.078,-1.943 Z" style="fill:#379975;fill-opacity:1;fill-rule:nonzero;stroke:none" id="path166"/>
        </g>
        <g id="g168" transform="translate(164.4131,52.5898)">
          <path d="M 0,0 C -0.077,-0.197 -0.308,-0.549 -0.684,-0.907 -1.561,-1.727 -2.71,-1.811 -3.625,-0.835 -4.5,0.099 -4.43,1.34 -3.468,2.241 -3.084,2.6 -2.76,2.751 -2.605,2.799 l 0.19,-0.401 C -2.627,2.326 -2.893,2.173 -3.151,1.934 -3.877,1.25 -3.945,0.352 -3.214,-0.422 c 0.684,-0.729 1.555,-0.782 2.305,-0.082 0.248,0.239 0.452,0.52 0.544,0.745 z" style="fill:#379975;fill-opacity:1;fill-rule:nonzero;stroke:none" id="path170"/>
        </g>
        <g id="g172" transform="translate(163.8398,54.6416)">
          <path d="M 0,0 C 0.596,-0.635 1.487,-0.865 2.123,-0.271 2.759,0.322 2.592,1.226 1.962,1.896 1.405,2.489 0.507,2.801 -0.164,2.169 -0.831,1.548 -0.608,0.651 0,0 M 2.37,2.309 C 3.323,1.291 3.184,0.138 2.394,-0.603 1.569,-1.377 0.424,-1.303 -0.418,-0.407 -1.3,0.536 -1.269,1.722 -0.443,2.502 0.412,3.295 1.542,3.195 2.37,2.309" style="fill:#379975;fill-opacity:1;fill-rule:nonzero;stroke:none" id="path174"/>
        </g>
        <g id="g176" transform="translate(168.2153,55.9834)">
          <path d="M 0,0 -2.782,2.969 -2.341,3.384 0.056,2.809 C 0.609,2.683 1.084,2.537 1.513,2.366 l 0.01,0.018 C 1.116,2.747 0.765,3.097 0.333,3.564 L -0.83,4.801 -0.453,5.155 2.33,2.194 1.924,1.812 -0.471,2.391 C -0.998,2.517 -1.522,2.659 -1.976,2.84 L -1.986,2.822 C -1.613,2.475 -1.274,2.117 -0.812,1.626 L 0.376,0.355 Z" style="fill:#379975;fill-opacity:1;fill-rule:nonzero;stroke:none" id="path178"/>
        </g>
        <g id="g180" transform="translate(168.9287,62.2314)">
          <path d="M 0,0 2.781,-2.964 2.377,-3.345 -0.404,-0.381 Z" style="fill:#379975;fill-opacity:1;fill-rule:nonzero;stroke:none" id="path182"/>
        </g>
      </g>
    </g>
  </g>
</svg>