<?xml version="1.0" encoding="UTF-8"?>
<svg id="AW" xmlns="http://www.w3.org/2000/svg" version="1.1" viewBox="0 0 800 800">
  <!-- Generator: Adobe Illustrator 29.4.0, SVG Export Plug-In . SVG Version: 2.1.0 Build 152)  -->
  <defs>
    <style>
      .st0 {
        fill: #cf1d56;
      }
    </style>
  </defs>
  <path d="M332.28,323.86h10.7v37.46c0,5.5-1.09,10.26-3.27,14.29-2.18,4.02-5.31,7.11-9.39,9.25-4.08,2.15-8.93,3.22-14.56,3.22s-10.58-1.07-14.69-3.22c-4.11-2.15-7.27-5.23-9.48-9.25-2.21-4.02-3.31-8.78-3.31-14.29v-37.46h10.7v37.46c0,5.5,1.51,9.83,4.53,12.97,3.02,3.15,7.1,4.72,12.24,4.72s9.1-1.56,12.06-4.67c2.96-3.11,4.44-7.45,4.44-13.02v-37.46ZM403.94,387.35v-29.93c0-3.87-.71-7.18-2.13-9.93-1.42-2.75-3.48-4.88-6.17-6.39-2.69-1.51-5.91-2.27-9.66-2.27-4.24,0-7.91.83-11.02,2.49-2.86,1.53-5.1,3.93-6.76,7.12v-9.25h-10.43v48.16h10.43v-25.59c.31-3.57,1.5-6.63,3.58-9.15,2.45-2.96,5.82-4.47,10.11-4.53,3.63,0,6.47,1.07,8.53,3.22,2.06,2.15,3.08,5.09,3.08,8.84v27.21h10.43ZM423.07,331.48c1.75,0,3.2-.59,4.35-1.77,1.15-1.18,1.72-2.62,1.72-4.31s-.58-3.2-1.72-4.35c-1.15-1.15-2.6-1.72-4.35-1.72s-3.13.58-4.31,1.72c-1.18,1.15-1.77,2.6-1.77,4.35s.59,3.13,1.77,4.31c1.18,1.18,2.62,1.77,4.31,1.77ZM417.9,387.35h10.34v-48.16h-10.34v48.16ZM484.02,339.19h-10.43l-13.24,38.55-13.42-38.55h-10.88l18.68,48.16h10.79l18.5-48.16ZM489.82,376.06c-2.06-3.66-3.08-7.9-3.08-12.74s1.03-9.08,3.08-12.74c2.06-3.66,4.93-6.51,8.62-8.57,3.69-2.06,7.92-3.11,12.7-3.17,5.68,0,10.25,1.17,13.7,3.49,3.45,2.33,5.89,5.61,7.35,9.84,1.45,4.23,1.97,9.25,1.54,15.06h-36.49c.32,1.64.82,3.16,1.52,4.54,1.3,2.54,3.11,4.51,5.44,5.89,2.33,1.39,5,2.09,8.03,2.09,5.38,0,9.92-1.9,13.6-5.71l5.53,5.53c-2.36,2.6-5.23,4.61-8.62,6.03-3.39,1.42-7.16,2.13-11.34,2.13-4.96,0-9.28-1.03-12.97-3.08-3.69-2.05-6.56-4.91-8.62-8.57ZM497.03,359.78h27.63c-.12-2.72-.74-5.03-1.86-6.94-1.12-1.91-2.68-3.39-4.67-4.44-1.99-1.06-4.29-1.59-6.89-1.59-2.9,0-5.43.67-7.57,2-2.15,1.33-3.83,3.19-5.03,5.58-.82,1.61-1.33,3.42-1.6,5.4ZM555.04,362.42c.2-2.48.83-4.73,1.95-6.73,1.36-2.42,3.29-4.31,5.8-5.67,2.51-1.36,5.49-1.95,8.93-1.77v-9.43c-4.05,0-7.56.95-10.52,2.86-2.6,1.67-4.64,4.08-6.17,7.13v-9.63h-10.43v48.16h10.43v-24.93ZM605.87,362.09c-1.96-1.06-4.04-1.92-6.21-2.59-2.18-.66-4.23-1.3-6.17-1.9-1.94-.6-3.52-1.35-4.76-2.22-1.24-.87-1.86-2.07-1.86-3.58,0-1.81.66-3.11,1.99-3.9,1.33-.78,3.02-1.18,5.08-1.18s4.43.38,6.94,1.13c2.51.76,4.82,1.77,6.94,3.04l3.81-7.35c-2.18-1.51-4.78-2.69-7.8-3.54-3.02-.85-6.05-1.27-9.07-1.27s-5.97.47-8.66,1.4c-2.69.94-4.89,2.42-6.58,4.44-1.69,2.03-2.54,4.67-2.54,7.94,0,2.9.6,5.23,1.82,6.98,1.21,1.76,2.76,3.15,4.67,4.17,1.91,1.03,3.95,1.86,6.12,2.49,2.18.63,4.23,1.27,6.17,1.9,1.94.64,3.51,1.44,4.72,2.4s1.82,2.3,1.82,3.99c0,1.27-.35,2.3-1.04,3.08-.69.79-1.63,1.37-2.81,1.77-1.18.39-2.53.59-4.04.59-2.6,0-5.41-.53-8.43-1.59-3.03-1.06-5.6-2.52-7.71-4.4l-3.72,7.07c2.42,2.18,5.38,3.84,8.89,4.99,3.51,1.15,7.01,1.72,10.52,1.72,3.26,0,6.3-.5,9.12-1.5,2.81-1,5.08-2.54,6.8-4.63,1.72-2.08,2.58-4.76,2.58-8.03,0-2.96-.61-5.35-1.81-7.17-1.21-1.81-2.8-3.25-4.76-4.31ZM628.14,319.33c-1.69,0-3.13.58-4.31,1.72-1.18,1.15-1.77,2.6-1.77,4.35s.59,3.13,1.77,4.31,2.61,1.77,4.31,1.77,3.2-.59,4.35-1.77c1.15-1.18,1.72-2.62,1.72-4.31s-.58-3.2-1.72-4.35c-1.15-1.15-2.6-1.72-4.35-1.72ZM622.97,387.35h10.34v-48.16h-10.34v48.16ZM669.54,378.28c-1.18.36-2.31.54-3.4.54-1.63,0-2.9-.47-3.81-1.4-.91-.94-1.36-2.71-1.36-5.31v-23.76h14.24v-7.44h-14.24v-13.15h-10.34v13.15h-6.8v7.44h6.8v25.58c0,3.26.62,5.93,1.86,7.98,1.24,2.06,2.89,3.55,4.94,4.49,2.06.94,4.29,1.4,6.71,1.4,2.06,0,4.08-.32,6.08-.95,2-.63,3.93-1.53,5.8-2.67l-2.63-7.53c-1.39.73-2.68,1.27-3.86,1.63ZM714.58,387.35l-.02-5.88c-1.32,1.63-2.92,2.98-4.88,3.97-3.08,1.57-6.78,2.36-11.07,2.36-3.45,0-6.44-.66-8.98-1.99-2.54-1.33-4.5-3.13-5.89-5.4-1.39-2.27-2.09-4.79-2.09-7.57,0-4.35,1.59-7.83,4.76-10.43,3.18-2.6,7.66-3.93,13.47-3.99h14.61v-1.63c0-3.14-.97-5.59-2.91-7.35-1.94-1.75-4.81-2.63-8.62-2.63-2.3,0-4.64.42-7.03,1.27-2.39.85-4.79,2.09-7.21,3.72l-4.26-6.71c2.24-1.39,4.35-2.54,6.35-3.45,2-.91,4.13-1.6,6.39-2.09,2.27-.48,4.94-.73,8.03-.73,6.23,0,11.02,1.5,14.37,4.49,3.36,2.99,5.06,7.12,5.12,12.38l.09,31.65h-10.25ZM714.52,370.05v-4.2h-13.1c-3.39,0-5.89.51-7.53,1.54-1.63,1.03-2.45,2.72-2.45,5.08s.83,4.02,2.49,5.35c1.66,1.33,3.94,1.99,6.85,1.99,2.6,0,4.93-.45,6.98-1.36,2.06-.91,3.69-2.13,4.9-3.67,1.11-1.41,1.71-3,1.85-4.74ZM708.77,331.12l-8.98-12.25-10.7,4.44,11.07,8.71,8.62-.91ZM338.39,432.49c0,7.14-2.19,12.68-6.58,16.64-4.38,3.96-10.57,5.94-18.55,5.94h-14.6v19.32h-10.7v-63.49h25.31c7.98,0,14.16,1.89,18.55,5.67,4.39,3.78,6.58,9.09,6.58,15.92ZM328.14,432.76c0-4.29-1.33-7.48-3.99-9.57-2.66-2.09-6.44-3.13-11.34-3.13h-14.15v25.85h14.15c4.9,0,8.68-1.07,11.34-3.22,2.66-2.15,3.99-5.46,3.99-9.93ZM389.27,439.2c1.45,4.23,1.96,9.25,1.54,15.06h-36.49c.32,1.64.82,3.16,1.52,4.54,1.3,2.54,3.11,4.51,5.44,5.89,2.33,1.39,5,2.09,8.03,2.09,5.38,0,9.91-1.9,13.6-5.71l5.53,5.53c-2.36,2.6-5.23,4.61-8.62,6.03-3.39,1.42-7.16,2.13-11.34,2.13-4.96,0-9.28-1.03-12.97-3.08-3.69-2.05-6.56-4.91-8.62-8.57-2.06-3.66-3.08-7.9-3.08-12.74s1.03-9.08,3.08-12.74c2.06-3.66,4.93-6.51,8.62-8.57,3.69-2.06,7.92-3.11,12.7-3.17,5.68,0,10.25,1.17,13.69,3.49,3.45,2.33,5.9,5.61,7.35,9.84ZM381.74,446.82c-.12-2.72-.74-5.03-1.86-6.94-1.12-1.91-2.68-3.39-4.67-4.44-1.99-1.06-4.29-1.59-6.89-1.59-2.9,0-5.43.67-7.57,2-2.15,1.33-3.82,3.19-5.03,5.58-.81,1.61-1.33,3.42-1.6,5.4h27.63ZM434.89,426.23h10.34v43.36c0,4.66-1.03,8.68-3.08,12.06-2.06,3.39-4.96,6-8.71,7.85-3.75,1.85-8.16,2.77-13.24,2.77-3.75,0-7.29-.56-10.61-1.68-3.33-1.12-6.47-2.68-9.43-4.67l4.44-7.16c2.3,1.69,4.66,3.01,7.07,3.95,2.42.94,5.11,1.41,8.07,1.41s5.76-.59,8.03-1.77c2.27-1.18,4.02-2.83,5.26-4.94,1.24-2.12,1.86-4.62,1.86-7.53v-5.86c-1.4,2.22-3.16,4.01-5.31,5.36-2.93,1.85-6.48,2.77-10.66,2.77s-8.16-.98-11.43-2.95c-3.26-1.96-5.8-4.7-7.62-8.21-1.81-3.51-2.72-7.56-2.72-12.15s.89-8.51,2.68-11.93c1.78-3.42,4.29-6.11,7.53-8.07,3.23-1.96,6.97-2.95,11.2-2.95,4.23-.06,7.85.83,10.84,2.68,2.22,1.37,4.05,3.18,5.49,5.44v-7.75ZM434.89,449.09c0-3.02-.59-5.67-1.77-7.94-1.18-2.27-2.81-4.05-4.9-5.35-2.08-1.3-4.49-1.95-7.21-1.95s-5.14.65-7.26,1.95c-2.12,1.3-3.76,3.1-4.94,5.4-1.18,2.3-1.8,4.93-1.86,7.89.06,2.96.68,5.59,1.86,7.89,1.18,2.3,2.81,4.1,4.9,5.4,2.09,1.3,4.52,1.95,7.3,1.95s5.12-.65,7.21-1.95c2.09-1.3,3.72-3.1,4.9-5.4,1.18-2.3,1.77-4.93,1.77-7.89ZM498.83,442.74l.09,31.65h-10.25l-.02-5.88c-1.32,1.63-2.92,2.98-4.88,3.97-3.08,1.57-6.78,2.36-11.07,2.36-3.45,0-6.44-.66-8.98-1.99-2.54-1.33-4.5-3.13-5.89-5.4-1.39-2.27-2.09-4.79-2.09-7.57,0-4.35,1.59-7.83,4.76-10.43,3.18-2.6,7.66-3.93,13.47-3.99h14.61v-1.63c0-3.14-.97-5.59-2.91-7.35-1.94-1.75-4.81-2.63-8.62-2.63-2.3,0-4.64.42-7.03,1.27-2.39.85-4.79,2.09-7.21,3.72l-4.26-6.71c2.24-1.39,4.35-2.54,6.35-3.45,2-.91,4.13-1.6,6.39-2.09,2.27-.48,4.94-.73,8.03-.73,6.23,0,11.02,1.5,14.37,4.49,3.36,2.99,5.06,7.12,5.12,12.38ZM488.62,457.09v-4.2h-13.1c-3.39,0-5.89.51-7.53,1.54-1.63,1.03-2.45,2.72-2.45,5.08s.83,4.02,2.49,5.35c1.66,1.33,3.94,1.99,6.85,1.99,2.6,0,4.93-.45,6.98-1.36,2.06-.91,3.69-2.13,4.9-3.67,1.11-1.41,1.71-3,1.85-4.74ZM538.42,449.13c-1.96-1.06-4.04-1.92-6.21-2.59-2.18-.66-4.23-1.3-6.17-1.9-1.94-.6-3.52-1.35-4.76-2.22-1.24-.87-1.86-2.07-1.86-3.58,0-1.81.66-3.11,1.99-3.9,1.33-.78,3.02-1.18,5.08-1.18s4.43.38,6.94,1.13c2.51.76,4.82,1.77,6.94,3.04l3.81-7.35c-2.18-1.51-4.78-2.69-7.8-3.54-3.02-.85-6.05-1.27-9.07-1.27s-5.97.47-8.66,1.4c-2.69.94-4.88,2.42-6.58,4.44-1.69,2.03-2.54,4.67-2.54,7.94,0,2.9.6,5.23,1.81,6.98,1.21,1.76,2.77,3.15,4.67,4.17,1.91,1.03,3.95,1.86,6.12,2.49,2.18.63,4.23,1.27,6.17,1.9,1.94.64,3.51,1.44,4.72,2.4,1.21.97,1.81,2.3,1.81,3.99,0,1.27-.35,2.3-1.04,3.08-.69.79-1.63,1.37-2.81,1.77-1.18.39-2.53.59-4.04.59-2.6,0-5.41-.53-8.44-1.59-3.03-1.06-5.59-2.52-7.71-4.4l-3.72,7.07c2.42,2.18,5.38,3.84,8.89,4.99,3.51,1.15,7.01,1.72,10.52,1.72,3.26,0,6.3-.5,9.12-1.5,2.81-1,5.08-2.54,6.8-4.63,1.72-2.08,2.58-4.76,2.58-8.03,0-2.96-.6-5.35-1.81-7.17-1.21-1.81-2.8-3.25-4.76-4.31ZM598.15,437.52c2.12,3.66,3.18,7.91,3.18,12.74s-1.06,9.1-3.18,12.79c-2.12,3.69-5.06,6.56-8.84,8.62-3.78,2.06-8.15,3.08-13.11,3.08s-9.34-1.03-13.15-3.08c-3.81-2.05-6.77-4.93-8.89-8.62-2.12-3.69-3.17-7.95-3.17-12.79s1.06-9.08,3.17-12.74c2.12-3.66,5.08-6.52,8.89-8.57,3.81-2.06,8.19-3.08,13.15-3.08s9.33,1.03,13.11,3.08c3.78,2.06,6.73,4.91,8.84,8.57ZM590.89,450.36c0-3.14-.62-5.93-1.86-8.35-1.24-2.42-2.96-4.31-5.17-5.67s-4.76-2.04-7.66-2.04-5.47.68-7.71,2.04c-2.24,1.36-3.98,3.25-5.22,5.67-1.24,2.42-1.86,5.2-1.86,8.35s.62,6.02,1.86,8.44,2.98,4.31,5.22,5.67c2.24,1.36,4.8,2.04,7.71,2.04s5.46-.68,7.66-2.04c2.21-1.36,3.93-3.25,5.17-5.67,1.24-2.42,1.86-5.23,1.86-8.44Z"/>
  <path class="st0" d="M187.91,474.39l53.91-53.91v26.11l-27.8,27.8h-26.11ZM113.2,331.38h-37.63v96.66h19.28l18.86-18.29v-.17h-19.68v-59.74h19.17c32.65,0,59.22,26.57,59.22,59.22,0,15.58-6.53,30.77-18.39,42.85l-22.48,22.48h26.11l8.96-8.96h.01c.31-.3.61-.61.91-.92l74.29-74.29v-26.11l-51.21,51.21c.18-2.08.27-4.17.27-6.27,0-7.38-1.04-14.52-2.97-21.29l53.91-53.91v-26.11l-61.78,61.78c-13.55-22.82-38.44-38.15-66.84-38.15ZM136.7,438.98c7.88-7.89,12.22-17.85,12.22-28.04,0-14.69-8.39-27.46-20.62-33.78l-14.85,14.4c9.58,1.25,17,9.46,17,19.38,0,6.74-3.71,11.87-6.82,14.99h0s-48.46,48.46-48.46,48.46h26.11l35.41-35.41h0Z"/>
</svg>